<svg width="3463" height="1620" viewBox="0 0 3463 1620" fill="none" xmlns="http://www.w3.org/2000/svg">
<g clip-path="url(#clip0_120_2)">
<path d="M2912 183.424V170H3104V183.424H3097.29C3071.78 183.424 3054.32 226.382 3054.32 253.23V968.742C3054.32 995.591 3070.43 1042.58 3097.29 1042.58H3104V1056H2912V1042.58H2918.71C2946.91 1042.58 2963.02 996.933 2963.02 968.742V253.23C2963.02 227.724 2946.91 183.424 2918.71 183.424H2912Z" fill="white"/>
<path d="M359 179.47V166H550.391C749.87 166 855 245.471 855 385.556C855 536.417 695.957 623.97 550.391 623.97H499.174L499.174 967.447C499.174 994.386 515.348 1041.53 542.304 1041.53H549.043V1055H359V1041.53H365.739C392.696 1041.53 407.522 994.386 407.522 967.447L407.522 249.512C407.522 223.92 392.696 183.511 365.739 179.47H359ZM518.043 213.144H499.174V576.826H539.609C685.174 576.826 764.696 490.62 764.696 404.414C764.696 302.044 701.348 213.144 518.043 213.144Z" fill="white"/>
<path fill-rule="evenodd" clip-rule="evenodd" d="M2778.04 491.649C2718.13 299.069 2539.75 168.391 2337.99 166.037C2128.6 163.595 1927.98 281.344 1865.14 481C1803.86 675.694 1910.06 876.118 2077.89 992.387C2233.86 1100.44 2438.46 1095.49 2592.8 985.109C2750.84 872.084 2835.74 677.121 2778.04 491.649ZM2170.23 991.346C2330.58 1050.57 2510.65 998.136 2616.63 863.664C2726.61 724.106 2751.32 528.341 2649.72 382.901C2550.66 241.076 2361.08 208.924 2196.15 261.709C2042.87 310.765 1940.34 450.925 1934.62 611.761C1928.77 776.452 2015.79 934.305 2170.23 991.346Z" fill="white"/>
<path fill-rule="evenodd" clip-rule="evenodd" d="M1757.44 472.915C1700.72 298.407 1545.85 171.687 1362.47 170.004C1173.9 168.274 1006.85 287.359 944.558 465.457C877.451 657.315 906.693 883.225 1071.37 1002.24C1234.89 1120.41 1456.57 1074.17 1616.3 950.925C1761.68 838.764 1814.22 647.593 1757.44 472.915ZM1678.49 795.102C1755.26 658.311 1745.01 487.344 1639.62 370.806C1531.25 250.974 1359.42 214.655 1211.31 278.522C1051.75 347.323 926.721 496.559 947.505 669.251C968.141 840.723 1125.89 953.64 1296.09 982.942C1450.98 1009.61 1601.64 932.026 1678.49 795.102Z" fill="white"/>
<path fill-rule="evenodd" clip-rule="evenodd" d="M1494.95 417.123C1555.38 451.034 1583.68 521.067 1570.81 589.036C1557.92 657.072 1505.83 710.673 1437.34 721.286C1362.07 732.948 1280.26 707.907 1247.54 639.123C1214.59 569.851 1245.89 489.898 1302.93 438.719C1355.87 391.211 1432.81 382.254 1494.95 417.123Z" fill="white"/>
<path fill-rule="evenodd" clip-rule="evenodd" d="M2410.02 446.791C2465.07 438.471 2490.72 479.297 2515.58 529.022C2539.52 576.91 2434.63 704.892 2396.6 742.654C2359.46 779.533 2303.96 789.967 2256.69 767.501C2205.82 743.328 2168.01 693.525 2176.06 637.844C2184.32 580.744 2352.88 455.426 2410.02 446.791ZM2248.11 611.242C2267.01 589.909 2286.2 592.112 2312.28 603.485C2337.4 614.437 2375.9 648.609 2373.36 675.92C2370.88 702.592 2356.84 720.909 2330.9 727.598C2302.99 734.795 2271.54 705.568 2256.43 681.055C2240.94 655.918 2228.51 633.383 2248.11 611.242ZM2409.9 606.243C2434.87 612.612 2452.67 611.517 2468.02 588.394C2483.95 564.396 2470.47 545.308 2453.94 524.283C2437.81 503.781 2406.27 481.549 2381.34 492.898C2358.17 503.446 2347 522.939 2347.19 548.365C2347.38 574.401 2385.85 600.108 2409.9 606.243Z" fill="white"/>
<path d="M187.738 1044.67C225.59 1036.91 327.191 1032.24 829.221 1044.67C1331.25 1057.09 1640.04 1056.3 1891.05 1044.67C2142.07 1033.03 2432.92 1044.67 2432.92 1044.67C2432.92 1044.67 3191.95 1037.26 3279.6 1044.67C3309.49 1066 3287.57 1089.27 3261.67 1089.27C3235.78 1089.27 2759.64 1098.97 2759.64 1098.97C2759.64 1098.97 1271.48 1112.54 1177.85 1098.97C679.807 1075.7 279.378 1108.66 187.738 1098.97C179.769 1097.43 149.886 1052.42 187.738 1044.67Z" fill="white"/>
<path d="M331.5 1349.4C336.167 1342.6 338.833 1335.27 339.5 1327.4V1291.2H284.3V1273.6H373.3V1291.2H356.9V1327.4C356.233 1339.53 352.233 1350.6 344.9 1360.6L321.1 1389.4L307.5 1378.4L331.5 1349.4ZM291.1 1241V1223.4H373.3V1241H291.1ZM361.3 1265.6V1249.2H377.7V1265.6H361.3ZM385.5 1265.6V1249.2H401.9V1265.6H385.5ZM591.5 1246.2V1228.6H629.3V1246.2H591.5ZM591.5 1301V1283.4H629.3V1301H591.5ZM669.9 1281.4V1237.6H687.5V1281.4C686.967 1293.27 683.967 1304.47 678.5 1315L635.3 1388.8L620.1 1380.2L663.3 1306.2C667.3 1298.33 669.5 1290.07 669.9 1281.4ZM668.7 1229.8V1213.4H685.3V1229.8H668.7ZM693.1 1229.8V1213.4H709.5V1229.8H693.1ZM947.5 1388.8L931.7 1381L967.3 1310.2L936.7 1294.6L944.7 1278.8L972.9 1293.4C973.7 1289.93 974.167 1286.33 974.3 1282.6V1247.8C973.9 1243.67 971.633 1241.4 967.5 1241H952.5C947.3 1241.53 943.9 1244.33 942.3 1249.4L938.5 1267.2C936.367 1276.8 932.567 1285.73 927.1 1294L920.7 1301.6L907.1 1290.2L913.5 1282.6C917.1 1276.6 919.7 1270.27 921.3 1263.6L925.1 1245.8C929.1 1232.07 938.233 1224.6 952.5 1223.4H967.5C982.3 1224.87 990.433 1233 991.9 1247.8V1282.6C991.5 1294.33 988.833 1305.53 983.9 1316.2L947.5 1388.8ZM1223.5 1302.6V1222.4H1241.1V1302.6C1240.83 1313.53 1239.7 1324.4 1237.7 1335.2L1226.3 1389L1209.3 1385.6L1220.5 1331.6C1222.1 1322 1223.1 1312.33 1223.5 1302.6ZM1293.3 1363.4L1299.1 1295.6L1316.5 1297L1310.9 1364.6C1310.23 1370.87 1307.7 1376.33 1303.3 1381C1298.77 1385.53 1293.23 1388 1286.7 1388.4C1272.57 1386.53 1264.97 1378.33 1263.9 1363.8V1222.4H1281.5V1363.8C1281.5 1367.53 1283.23 1369.87 1286.7 1370.8C1290.57 1369.87 1292.77 1367.4 1293.3 1363.4ZM1620.3 1219V1267C1620.3 1268.73 1620.3 1269.73 1620.3 1270C1620.43 1270.27 1621.43 1270.4 1623.3 1270.4C1625.17 1270.4 1626.23 1269.8 1626.5 1268.6C1627.17 1266.73 1627.83 1259.53 1628.5 1247L1644.1 1249C1643.83 1254.6 1643.63 1258.87 1643.5 1261.8C1643.5 1264.6 1643.23 1267.73 1642.7 1271.2C1642.17 1274.67 1641.77 1277.07 1641.5 1278.4C1641.23 1279.73 1640.43 1281.27 1639.1 1283C1637.9 1284.6 1636.83 1285.6 1635.9 1286C1634.97 1286.27 1633.37 1286.67 1631.1 1287.2C1628.97 1287.73 1626.97 1288 1625.1 1288C1623.37 1288 1620.77 1288 1617.3 1288C1611.3 1288 1607.3 1287.33 1605.3 1286C1603.43 1284.67 1602.5 1281.67 1602.5 1277V1237H1584.7V1237.6C1584.7 1263.73 1576.63 1282.2 1560.5 1293L1550.9 1277C1557.83 1271.8 1562.37 1265.93 1564.5 1259.4C1566.63 1252.87 1567.7 1242.73 1567.7 1229V1219H1620.3ZM1559.5 1327L1573.3 1315.8C1579.57 1327 1586.97 1337 1595.5 1345.8C1603.77 1337 1610.1 1326.27 1614.5 1313.6H1558.3L1559.3 1321.4C1553.43 1324.33 1548.7 1326.8 1545.1 1328.8V1363C1545.1 1376.33 1544.17 1384.47 1542.3 1387.4C1540.43 1390.47 1535.7 1392 1528.1 1392C1526.1 1392 1521.03 1391.67 1512.9 1391L1512.3 1373.6C1518.7 1374.13 1523.37 1374.4 1526.3 1374.4C1526.83 1374.4 1527.1 1374 1527.1 1373.2C1527.23 1372.27 1527.3 1369.2 1527.3 1364V1335.2C1523.3 1337.33 1518.43 1339.07 1512.7 1340.4L1511.3 1321.6C1515.43 1320.53 1520.77 1318.67 1527.3 1316V1265.6H1511.5V1247.6H1527.3V1214H1545.1V1247.6H1558.1V1265.6H1545.1V1309.6C1549.9 1306.4 1552.7 1304.47 1553.5 1303.8V1295.6H1633.9V1313.6C1627.9 1330.53 1620.03 1344.8 1610.3 1356.4C1619.77 1364.13 1630.77 1370.2 1643.3 1374.6L1637.5 1392C1621.23 1386.67 1607.23 1378.87 1595.5 1368.6C1584.17 1378.07 1569.57 1385.87 1551.7 1392L1545.5 1374C1560.3 1369.47 1571.83 1363.73 1580.1 1356.8C1572.23 1347.47 1565.37 1337.53 1559.5 1327ZM1879.7 1237.6V1248H1895.5V1237.6H1879.7ZM1831.5 1296.4V1248H1862.1V1237.6H1825.1V1220H1949.9V1237.6H1913.1V1248H1943.5V1296.4H1831.5ZM1862.1 1281V1263H1848.7V1281H1862.1ZM1895.5 1281V1263H1879.7V1281H1895.5ZM1913.1 1281H1926.5V1263H1913.1V1281ZM1835.5 1321.6V1304.4H1940.3V1321.6H1835.5ZM1949.9 1330V1347.6H1924.9C1933.17 1356.27 1942.03 1365.47 1951.5 1375.2L1942.1 1390.8C1929.57 1378.67 1917.23 1367.87 1905.1 1358.4L1909.5 1347.6H1898.9V1371C1898.9 1380.6 1897.7 1386.53 1895.3 1388.8C1893.03 1391.2 1887.43 1392.4 1878.5 1392.4C1873.43 1392.4 1866.5 1392.07 1857.7 1391.4L1857.1 1374.6C1865.37 1375.27 1871.43 1375.6 1875.3 1375.6C1878.1 1375.6 1879.63 1375.33 1879.9 1374.8C1880.3 1374.13 1880.5 1372.2 1880.5 1369V1347.6H1862.7L1868.1 1358C1858.1 1371.07 1846.03 1381.87 1831.9 1390.4L1823.9 1374.6C1835.37 1367.27 1844.63 1358.27 1851.7 1347.6H1825.1V1330H1949.9ZM2216.9 1366.6C2197.7 1374.73 2172.83 1381.6 2142.3 1387.2L2139.7 1369C2152.1 1366.73 2161.23 1364.87 2167.1 1363.4V1300.4H2143.7V1283H2208.9V1300.4H2185.3V1359.4C2195.17 1356.2 2204.63 1352.93 2213.7 1349.6L2216.9 1366.6ZM2234.3 1209C2243.1 1214.87 2251.97 1221.93 2260.9 1230.2L2255.5 1241.6H2264.1V1259.6H2227.3C2228.1 1274.13 2229.23 1287.67 2230.7 1300.2C2232.17 1312.73 2233.7 1322.93 2235.3 1330.8C2236.9 1338.53 2238.57 1345.27 2240.3 1351C2242.03 1356.6 2243.43 1360.6 2244.5 1363C2245.7 1365.27 2246.37 1366.4 2246.5 1366.4C2248.5 1366.4 2250.3 1355.07 2251.9 1332.4L2268.3 1339.2C2267.37 1357.33 2265.1 1370.67 2261.5 1379.2C2257.9 1387.73 2253.57 1392 2248.5 1392C2245.3 1392 2242.1 1390.67 2238.9 1388C2235.83 1385.47 2232.63 1380.93 2229.3 1374.4C2226.1 1367.87 2223.23 1359.73 2220.7 1350C2218.17 1340.27 2215.9 1327.6 2213.9 1312C2211.9 1296.4 2210.43 1278.93 2209.5 1259.6H2136.7V1241.6H2209.1C2208.7 1232.13 2208.5 1222.27 2208.5 1212H2225.9C2225.9 1215.33 2225.97 1219.13 2226.1 1223.4L2234.3 1209ZM2226.5 1241.6H2244.1C2239.7 1235.6 2233.7 1229.8 2226.1 1224.2C2226.1 1229.4 2226.23 1235.2 2226.5 1241.6ZM2527.9 1366.6C2531.9 1366.2 2534.17 1363.93 2534.7 1359.8V1247.8C2534.17 1243.67 2531.9 1241.4 2527.9 1241H2471.1V1223.4H2527.9C2542.57 1224.87 2550.7 1233 2552.3 1247.8V1359.8C2550.7 1374.6 2542.57 1382.73 2527.9 1384.2H2471.1V1366.6H2527.9ZM2538.5 1223V1206.6H2554.9V1223H2538.5ZM2563.1 1223V1206.6H2579.5V1223H2563.1ZM2863.1 1247.6L2858.3 1264.6L2819.3 1253.6C2808.63 1250.53 2799.43 1245.2 2791.7 1237.6L2783.3 1228.2L2796.3 1216.4L2804.7 1225.8C2810.17 1230.73 2816.57 1234.4 2823.9 1236.8L2863.1 1247.6ZM2854.1 1301.4L2848.7 1318.2L2794.1 1300.6L2799.5 1284L2854.1 1301.4ZM2860.9 1391.8L2797.7 1375.4C2791.7 1373.67 2786.7 1370.6 2782.7 1366.2C2778.43 1361.67 2776.23 1356.33 2776.1 1350.2V1337.4H2793.7V1350.2C2794.9 1354.33 2797.7 1357.07 2802.1 1358.4L2865.3 1374.8L2860.9 1391.8ZM3148.5 1353V1370H3178.5V1353H3148.5ZM3148.5 1320V1337H3178.5V1320H3148.5ZM3148.5 1304H3178.5V1287H3148.5V1304ZM3156.5 1245H3152.3C3148.43 1254.6 3144.63 1262.8 3140.9 1269.6H3162.5C3158.9 1255.6 3156.9 1247.4 3156.5 1245ZM3130.5 1290V1307H3112.9C3117.43 1315.8 3123.57 1327.2 3131.3 1341.2V1270L3123.3 1260.8C3127.3 1255.87 3130.3 1250.6 3132.3 1245H3118.5C3118.63 1246.87 3120.23 1253.4 3123.3 1264.6L3110.3 1271.2V1290H3130.5ZM3122.1 1358.6C3118.9 1353.13 3114.97 1343.47 3110.3 1329.6V1394H3092.7V1339.2C3089.9 1352.53 3084.57 1364.67 3076.7 1375.6L3065.5 1359.8C3076.7 1342.73 3084.63 1325.13 3089.3 1307H3070.7V1290H3092.7V1266H3105.1C3104.17 1261.33 3102.5 1254.33 3100.1 1245H3097.1C3092.83 1256.2 3087.03 1266.27 3079.7 1275.2L3067.5 1262.8C3072.83 1255.6 3077.43 1247.4 3081.3 1238.2C3085.17 1228.87 3088.1 1219.73 3090.1 1210.8L3106.9 1213.8C3106.1 1217.8 3105.17 1222.4 3104.1 1227.6H3138.1V1241.6C3140.9 1231.47 3143.5 1221.2 3145.9 1210.8L3162.9 1213.8C3161.83 1218.33 3160.83 1222.93 3159.9 1227.6H3198.9V1245H3175.1C3175.23 1246.87 3176.83 1253.4 3179.9 1264.6L3173.3 1269.6H3196.3V1393.6H3178.5V1386.4H3148.5V1393.6H3131.3V1346.2L3122.1 1358.6Z" fill="white"/>
</g>
<defs>
<clipPath id="clip0_120_2">
<rect width="3463" height="1620" fill="white"/>
</clipPath>
</defs>
</svg>