<svg width="512" height="512" viewBox="0 0 512 512" fill="none" xmlns="http://www.w3.org/2000/svg">
<g clip-path="url(#clip0_3157_359)">
<path d="M256.011 0C114.623 0 0 114.612 0 256C0 397.388 114.623 512 256.011 512C397.399 512 512 397.389 512 256C512 114.612 397.399 0 256.011 0ZM447.918 168.402C454.734 173.849 459.081 184.253 458.516 195.972C457.972 207.656 452.696 217.528 445.404 222.159C438.612 216.713 434.264 206.286 434.83 194.59C435.373 182.884 440.649 173.033 447.918 168.402ZM432.203 250.192C423.168 248.358 413.861 240.75 408.404 229.654C402.925 218.57 402.744 206.942 407.068 199.232C416.08 201.078 425.387 208.675 430.866 219.782C436.347 230.854 436.528 242.482 432.203 250.192ZM387.957 172.128C379.782 163.965 375.979 153.922 377.246 146.054C385.579 145.228 395.95 149.338 404.124 157.512C412.299 165.687 416.103 175.74 414.834 183.586C406.502 184.412 396.154 180.314 387.957 172.128ZM393.731 359.641C391.512 372.401 384.335 382.5 375.707 386.565C369.005 379.637 365.698 367.612 367.917 354.853C370.159 342.103 377.315 332.027 385.965 327.941C392.644 334.857 395.973 346.892 393.731 359.641ZM425.364 298.424C425.297 310.662 420.202 321.17 412.82 326.287C405.483 320.863 400.524 310.153 400.592 297.914C400.66 285.686 405.733 275.18 413.114 270.051C420.451 275.474 425.432 286.185 425.364 298.424ZM403.785 112.031C411.212 114.487 418.322 121.835 421.855 131.742C425.409 141.637 424.436 151.442 420.066 157.511C412.661 155.031 405.551 147.706 402.019 137.8C398.464 127.893 399.437 118.088 403.785 112.031ZM376.816 104.819C384.447 112.382 388.048 121.733 386.893 129.047C379.149 129.851 369.479 126.08 361.849 118.495C354.196 110.921 350.595 101.591 351.773 94.255C359.494 93.463 369.163 97.244 376.816 104.819ZM135.206 104.819C142.859 97.244 152.506 93.463 160.25 94.255C161.404 101.591 157.828 110.921 150.174 118.495C142.52 126.081 132.874 129.851 125.13 129.047C123.974 121.733 127.552 112.382 135.206 104.819ZM126.058 327.94C134.686 332.027 141.864 342.103 144.083 354.852C146.302 367.611 143.018 379.636 136.316 386.564C127.688 382.499 120.51 372.4 118.291 359.64C116.049 346.892 119.356 334.857 126.058 327.94ZM97.187 183.586C95.919 175.739 99.723 165.686 107.897 157.512C116.072 149.338 126.442 145.228 134.753 146.054C136.043 153.923 132.217 163.965 124.043 172.128C115.868 180.314 105.498 184.412 97.187 183.586ZM90.145 131.742C93.7 121.835 100.787 114.487 108.215 112.031C112.585 118.089 113.535 127.893 110.004 137.8C106.448 147.706 99.361 155.032 91.934 157.511C87.564 151.442 86.613 141.637 90.145 131.742ZM104.954 199.232C109.28 206.942 109.098 218.57 103.618 229.654C98.138 240.75 88.831 248.358 79.819 250.192C75.494 242.482 75.675 230.854 81.155 219.782C86.613 208.675 95.919 201.078 104.954 199.232ZM111.43 297.914C111.498 310.153 106.517 320.864 99.18 326.287C91.797 321.169 86.725 310.662 86.658 298.424C86.59 286.185 91.571 275.474 98.886 270.051C106.268 275.18 111.362 285.686 111.43 297.914ZM64.082 168.402C71.373 173.032 76.65 182.884 77.193 194.59C77.737 206.286 73.411 216.713 66.619 222.159C59.328 217.529 54.028 207.657 53.508 195.972C52.941 184.253 57.289 173.849 64.082 168.402ZM42.797 274.127C36.117 263.857 34.599 252.299 37.974 244.01C47.099 244.576 57.154 250.826 63.856 261.118C70.536 271.386 72.053 282.924 68.679 291.223C59.553 290.668 49.477 284.407 42.797 274.127ZM74.725 370.692C62.927 363.242 55.862 352.328 55.41 342.59C65.124 339.262 78.507 341.243 90.304 348.693C102.102 356.132 109.167 367.034 109.62 376.772C99.905 380.112 86.522 378.13 74.725 370.692ZM137.787 426.214C124.111 421.878 114.079 413.047 110.841 403.774C119.377 398.226 133.032 396.913 146.709 401.26C160.363 405.574 170.394 414.427 173.655 423.689C165.119 429.238 151.442 430.551 137.787 426.214ZM273.922 347.742C273.922 349.417 272.812 350.527 271.138 350.527H245.572C243.897 350.527 242.787 349.417 242.787 347.742V198.723H242.243L213.327 219.012C211.651 220.132 210.27 219.578 210.27 217.359V188.997C210.27 187.332 210.814 186.223 212.194 185.103L242.514 163.137C243.896 162.028 245.3 161.473 247.519 161.473H271.137C272.812 161.473 273.921 162.583 273.921 164.258V347.742H273.922ZM374.235 426.214C360.58 430.551 346.903 429.238 338.367 423.69C341.605 414.428 351.637 405.575 365.313 401.261C378.968 396.913 392.645 398.227 401.181 403.775C397.943 413.047 387.912 421.878 374.235 426.214ZM437.298 370.692C425.5 378.13 412.118 380.112 402.404 376.772C402.856 367.034 409.922 356.132 421.719 348.693C433.517 341.243 446.898 339.262 456.613 342.59C456.16 352.328 449.095 363.242 437.298 370.692ZM443.344 291.223C439.97 282.924 441.488 271.386 448.167 261.118C454.847 250.826 464.923 244.576 474.049 244.01C477.424 252.298 475.906 263.857 469.226 274.127C462.546 284.407 452.469 290.668 443.344 291.223Z" fill="url(#paint0_linear_3157_359)"/>
</g>
<defs>
<linearGradient id="paint0_linear_3157_359" x1="256" y1="0" x2="256" y2="512" gradientUnits="userSpaceOnUse">
<stop stop-color="#F8D460"/>
<stop offset="1" stop-color="#D16A03"/>
</linearGradient>
<clipPath id="clip0_3157_359">
<rect width="512" height="512" fill="white"/>
</clipPath>
</defs>
</svg>
