<svg width="512" height="512" viewBox="0 0 512 512" fill="none" xmlns="http://www.w3.org/2000/svg">
<g clip-path="url(#clip0_3157_356)">
<path d="M256.011 0C114.623 0 0 114.612 0 256C0 397.388 114.623 512 256.011 512C397.376 512 512 397.389 512 256C512 114.612 397.376 0 256.011 0ZM447.917 168.402C454.711 173.849 459.059 184.253 458.515 195.972C457.971 207.656 452.673 217.528 445.403 222.159C438.587 216.713 434.263 206.286 434.807 194.59C435.35 182.884 440.649 173.033 447.917 168.402ZM432.18 250.192C423.168 248.358 413.861 240.75 408.404 229.654C402.925 218.57 402.743 206.942 407.045 199.232C416.08 201.078 425.387 208.675 430.844 219.782C436.324 230.854 436.504 242.482 432.18 250.192ZM387.956 172.128C379.782 163.965 375.978 153.922 377.246 146.054C385.556 145.228 395.927 149.338 404.124 157.512C412.299 165.687 416.103 175.74 414.812 183.586C406.503 184.412 396.131 180.314 387.956 172.128ZM393.731 359.641C391.512 372.401 384.333 382.5 375.707 386.565C369.005 379.637 365.698 367.612 367.917 354.853C370.159 342.103 377.315 332.027 385.942 327.941C392.643 334.857 395.973 346.892 393.731 359.641ZM425.364 298.424C425.296 310.662 420.202 321.17 412.82 326.287C405.483 320.863 400.524 310.153 400.569 297.914C400.637 285.686 405.732 275.18 413.115 270.051C420.451 275.474 425.409 286.185 425.364 298.424ZM403.785 112.031C411.212 114.487 418.299 121.835 421.855 131.742C425.409 141.637 424.436 151.442 420.066 157.511C412.661 155.031 405.551 147.706 402.018 137.8C398.464 127.893 399.414 118.088 403.785 112.031ZM376.816 104.819C384.447 112.382 388.048 121.733 386.892 129.047C379.149 129.851 369.48 126.08 361.849 118.495C354.195 110.921 350.595 101.591 351.75 94.255C359.494 93.463 369.14 97.244 376.816 104.819ZM135.183 104.819C142.859 97.244 152.506 93.463 160.25 94.255C161.404 101.591 157.805 110.921 150.174 118.495C142.52 126.081 132.851 129.851 125.13 129.047C123.974 121.733 127.552 112.382 135.183 104.819ZM126.058 327.94C134.685 332.027 141.864 342.103 144.082 354.852C146.301 367.611 143.018 379.636 136.292 386.564C127.687 382.499 120.51 372.4 118.267 359.64C116.049 346.892 119.356 334.857 126.058 327.94ZM97.187 183.586C95.895 175.739 99.701 165.686 107.897 157.512C116.072 149.338 126.442 145.228 134.753 146.054C136.021 153.923 132.217 163.965 124.043 172.128C115.868 180.314 105.498 184.412 97.187 183.586ZM90.144 131.742C93.7 121.835 100.787 114.487 108.214 112.031C112.585 118.089 113.536 127.893 110.003 137.8C106.449 147.706 99.361 155.032 91.933 157.511C87.564 151.442 86.59 141.637 90.144 131.742ZM104.954 199.232C109.256 206.942 109.076 218.57 103.618 229.654C98.138 240.75 88.831 248.358 79.818 250.192C75.494 242.482 75.674 230.854 81.155 219.782C86.613 208.675 95.919 201.078 104.954 199.232ZM111.43 297.914C111.497 310.153 106.517 320.864 99.179 326.287C91.797 321.169 86.703 310.662 86.658 298.424C86.59 286.185 91.548 275.474 98.886 270.051C106.268 275.18 111.362 285.686 111.43 297.914ZM64.082 168.402C71.373 173.032 76.65 182.884 77.193 194.59C77.736 206.286 73.411 216.713 66.595 222.159C59.326 217.529 54.027 207.657 53.484 195.972C52.941 184.253 57.289 173.849 64.082 168.402ZM42.797 274.127C36.117 263.857 34.577 252.299 37.951 244.01C47.1 244.576 57.152 250.826 63.833 261.118C70.513 271.386 72.03 282.924 68.679 291.223C59.53 290.668 49.476 284.407 42.797 274.127ZM74.725 370.692C62.927 363.242 55.862 352.328 55.41 342.59C65.101 339.262 78.506 341.243 90.304 348.693C102.102 356.132 109.144 367.034 109.619 376.772C99.904 380.112 86.521 378.13 74.725 370.692ZM137.765 426.214C124.11 421.878 114.056 413.047 110.818 403.774C119.378 398.226 133.032 396.913 146.686 401.26C160.363 405.574 170.394 414.427 173.632 423.689C165.096 429.238 151.442 430.551 137.765 426.214ZM309.133 324.249C310.786 324.249 311.896 325.37 311.896 327.034V349.271C311.896 350.946 310.786 352.056 309.133 352.056H202.911C201.258 352.056 200.149 350.946 200.149 349.271V328.416C200.149 326.751 200.421 325.914 201.531 324.815L268.262 241.678C275.78 232.508 280.49 223.608 280.49 212.762C280.49 198.598 271.319 187.752 255.468 187.752C240.456 187.752 231.828 196.922 229.881 211.369C229.609 213.033 228.499 213.883 226.824 213.6L202.368 208.595C200.693 208.312 199.878 206.931 200.149 205.255C202.641 183.019 220.438 159.945 256.306 159.945C291.608 159.945 311.896 183.291 311.896 212.762C311.896 229.722 305.239 243.637 294.12 256.974L239.05 323.694V324.248H309.133V324.249ZM374.235 426.214C360.58 430.551 346.903 429.238 338.367 423.69C341.605 414.428 351.636 405.575 365.313 401.261C378.968 396.913 392.644 398.227 401.182 403.775C397.943 413.047 387.911 421.878 374.235 426.214ZM437.276 370.692C425.5 378.13 412.096 380.112 402.381 376.772C402.857 367.034 409.922 356.132 421.696 348.693C433.516 341.243 446.898 339.262 456.612 342.59C456.137 352.328 449.072 363.242 437.276 370.692ZM443.32 291.223C439.97 282.924 441.486 271.386 448.166 261.118C454.846 250.826 464.9 244.576 474.048 244.01C477.422 252.298 475.882 263.857 469.203 274.127C462.523 284.407 452.469 290.668 443.32 291.223Z" fill="url(#paint0_linear_3157_356)"/>
</g>
<defs>
<linearGradient id="paint0_linear_3157_356" x1="256" y1="0" x2="256" y2="512" gradientUnits="userSpaceOnUse">
<stop stop-color="#C1C1C1"/>
<stop offset="1" stop-color="#555555"/>
</linearGradient>
<clipPath id="clip0_3157_356">
<rect width="512" height="512" fill="white"/>
</clipPath>
</defs>
</svg>
