<svg width="512" height="512" viewBox="0 0 512 512" fill="none" xmlns="http://www.w3.org/2000/svg">
<g clip-path="url(#clip0_3157_353)">
<path d="M256.012 0C114.624 0 0 114.612 0 256C0 397.388 114.624 512 256.012 512C397.4 512 512 397.389 512 256C512 114.612 397.4 0 256.012 0ZM447.918 168.402C454.734 173.849 459.082 184.253 458.516 195.972C457.972 207.656 452.696 217.528 445.405 222.159C438.613 216.713 434.265 206.286 434.831 194.59C435.374 182.884 440.649 173.033 447.918 168.402ZM432.203 250.192C423.168 248.358 413.862 240.75 408.405 229.654C402.925 218.57 402.744 206.942 407.07 199.232C416.082 201.078 425.388 208.675 430.868 219.782C436.348 230.854 436.529 242.482 432.203 250.192ZM387.957 172.128C379.782 163.965 375.979 153.922 377.247 146.054C385.579 145.228 395.951 149.338 404.125 157.512C412.299 165.687 416.104 175.74 414.835 183.586C406.502 184.412 396.155 180.314 387.957 172.128ZM393.732 359.641C391.513 372.401 384.334 382.5 375.707 386.565C369.005 379.637 365.698 367.612 367.918 354.853C370.16 342.103 377.316 332.027 385.964 327.941C392.644 334.857 395.973 346.892 393.732 359.641ZM425.365 298.424C425.297 310.662 420.203 321.17 412.821 326.287C405.483 320.863 400.525 310.153 400.593 297.914C400.66 285.686 405.733 275.18 413.114 270.051C420.452 275.474 425.432 286.185 425.365 298.424ZM403.786 112.031C411.213 114.487 418.323 121.835 421.856 131.742C425.411 141.637 424.437 151.442 420.067 157.511C412.662 155.031 405.551 147.706 402.019 137.8C398.464 127.893 399.438 118.088 403.786 112.031ZM376.817 104.819C384.448 112.382 388.048 121.733 386.893 129.047C379.15 129.851 369.481 126.08 361.85 118.495C354.196 110.921 350.596 101.591 351.773 94.255C359.494 93.463 369.163 97.244 376.817 104.819ZM135.206 104.819C142.86 97.244 152.506 93.463 160.25 94.255C161.405 101.591 157.827 110.921 150.174 118.495C142.52 126.081 132.874 129.851 125.13 129.047C123.976 121.733 127.554 112.382 135.206 104.819ZM126.059 327.94C134.686 332.027 141.865 342.103 144.084 354.852C146.303 367.611 143.02 379.636 136.316 386.564C127.689 382.499 120.512 372.4 118.292 359.64C116.05 346.892 119.357 334.857 126.059 327.94ZM97.187 183.586C95.92 175.739 99.724 165.686 107.899 157.512C116.073 149.338 126.444 145.228 134.755 146.054C136.045 153.923 132.218 163.965 124.045 172.128C115.869 180.314 105.498 184.412 97.187 183.586ZM90.146 131.742C93.702 121.835 100.789 114.487 108.216 112.031C112.587 118.089 113.538 127.893 110.005 137.8C106.451 147.706 99.362 155.032 91.935 157.511C87.564 151.442 86.613 141.637 90.146 131.742ZM104.955 199.232C109.279 206.942 109.099 218.57 103.618 229.654C98.139 240.75 88.831 248.358 79.82 250.192C75.496 242.482 75.677 230.854 81.156 219.782C86.613 208.675 95.92 201.078 104.955 199.232ZM111.432 297.914C111.499 310.153 106.517 320.864 99.181 326.287C91.799 321.169 86.727 310.662 86.659 298.424C86.592 286.185 91.573 275.474 98.887 270.051C106.268 275.18 111.363 285.686 111.432 297.914ZM64.083 168.402C71.374 173.032 76.65 182.884 77.193 194.59C77.737 206.286 73.413 216.713 66.619 222.159C59.328 217.529 54.029 207.657 53.509 195.972C52.942 184.253 57.289 173.849 64.083 168.402ZM42.797 274.127C36.117 263.857 34.6 252.299 37.974 244.01C47.099 244.576 57.153 250.826 63.856 261.118C70.536 271.386 72.054 282.924 68.68 291.223C59.554 290.668 49.477 284.407 42.797 274.127ZM74.725 370.692C62.928 363.242 55.863 352.328 55.41 342.59C65.124 339.262 78.507 341.243 90.304 348.693C102.102 356.132 109.166 367.034 109.619 376.772C99.905 380.112 86.522 378.13 74.725 370.692ZM137.788 426.214C124.111 421.878 114.08 413.047 110.842 403.774C119.378 398.226 133.032 396.913 146.709 401.26C160.364 405.574 170.395 414.427 173.655 423.689C165.119 429.238 151.442 430.551 137.788 426.214ZM255.604 353.584C226.145 353.584 203.071 338.843 197.229 312.994C196.957 311.33 197.795 309.937 199.448 309.371L223.631 303.823C225.035 303.54 226.416 304.094 226.959 305.759C230.853 316.888 240.047 325.775 255.603 325.775C273.107 325.775 283.409 313.831 283.409 297.698C283.409 278.507 271.182 266.845 252.545 266.845H244.484C242.809 266.845 241.699 265.725 241.699 264.06V242.106C241.699 240.431 242.809 239.31 244.484 239.31H252.002C268.668 239.31 279.514 228.464 279.514 211.786C279.514 196.785 270.072 186.221 254.221 186.221C240.317 186.221 232.256 193.999 228.927 205.683C228.361 207.336 227.251 207.903 225.576 207.619L201.959 202.06C200.283 201.777 199.445 200.384 199.739 198.721C203.906 175.929 224.739 158.415 255.331 158.415C290.655 158.415 310.922 180.096 310.922 210.677C310.922 226.528 303.698 240.692 289.818 249.874V250.428C300.913 255.172 314.816 271.566 314.816 296.305C314.818 330.782 289.525 353.584 255.604 353.584ZM374.235 426.214C360.581 430.551 346.904 429.238 338.368 423.69C341.606 414.428 351.637 405.575 365.314 401.261C378.968 396.913 392.645 398.227 401.181 403.775C397.944 413.047 387.912 421.878 374.235 426.214ZM437.299 370.692C425.501 378.13 412.119 380.112 402.404 376.772C402.857 367.034 409.922 356.132 421.719 348.693C433.517 341.243 446.899 339.262 456.613 342.59C456.16 352.328 449.096 363.242 437.299 370.692ZM443.345 291.223C439.971 282.924 441.488 271.386 448.168 261.118C454.848 250.826 464.924 244.576 474.05 244.01C477.424 252.298 475.908 263.857 469.227 274.127C462.546 284.407 452.47 290.668 443.345 291.223Z" fill="url(#paint0_linear_3157_353)"/>
</g>
<defs>
<linearGradient id="paint0_linear_3157_353" x1="51.5" y1="42.5" x2="383" y2="447" gradientUnits="userSpaceOnUse">
<stop stop-color="#FF6228"/>
<stop offset="0.935" stop-color="#804000"/>
</linearGradient>
<clipPath id="clip0_3157_353">
<rect width="512" height="512" fill="white"/>
</clipPath>
</defs>
</svg>
